<?xml version="1.0" encoding="UTF-8"?>
<!DOCTYPE svg PUBLIC "-//W3C//DTD SVG 1.1//EN" "http://www.w3.org/Graphics/SVG/1.1/DTD/svg11.dtd">
<svg version="1.1" xmlns="http://www.w3.org/2000/svg" xmlns:xlink="http://www.w3.org/1999/xlink" x="0" y="0" width="69.346" height="25.77" viewBox="0, 0, 69.346, 25.77">
  <g id="Capa_1" transform="translate(323.832, -553.151)">
    <g>
      <path d="M-323.832,578.921 L-323.832,553.151 L-318.629,553.151 L-318.629,578.921 z" fill="#C21A19"/>
      <path d="M-313.689,553.151 L-304.18,553.151 Q-300.963,553.151 -299.275,553.644 Q-297.008,554.312 -295.39,556.017 Q-293.773,557.722 -292.93,560.192 Q-292.086,562.661 -292.086,566.282 Q-292.086,569.464 -292.877,571.767 Q-293.844,574.579 -295.637,576.319 Q-296.99,577.638 -299.293,578.376 Q-301.015,578.921 -303.898,578.921 L-313.689,578.921 z M-308.486,557.511 L-308.486,574.579 L-304.601,574.579 Q-302.422,574.579 -301.455,574.333 Q-300.189,574.017 -299.354,573.261 Q-298.519,572.505 -297.992,570.774 Q-297.465,569.042 -297.465,566.054 Q-297.465,563.066 -297.992,561.466 Q-298.519,559.866 -299.469,558.97 Q-300.418,558.073 -301.877,557.757 Q-302.967,557.511 -306.148,557.511 z" fill="#C21A19"/>
      <path d="M-287.709,557.722 L-287.709,553.151 L-282.769,553.151 L-282.769,557.722 z M-287.709,578.921 L-287.709,560.253 L-282.769,560.253 L-282.769,578.921 z" fill="#C21A19"/>
      <path d="M-277.654,578.921 L-277.654,553.151 L-266.703,553.151 Q-262.572,553.151 -260.7,553.846 Q-258.828,554.54 -257.703,556.316 Q-256.578,558.091 -256.578,560.376 Q-256.578,563.276 -258.283,565.166 Q-259.988,567.056 -263.381,567.548 Q-261.693,568.532 -260.595,569.71 Q-259.496,570.888 -257.633,573.894 L-254.486,578.921 L-260.709,578.921 L-264.471,573.314 Q-266.474,570.308 -267.213,569.526 Q-267.951,568.743 -268.777,568.453 Q-269.603,568.163 -271.396,568.163 L-272.451,568.163 L-272.451,578.921 z M-272.451,564.05 L-268.601,564.05 Q-264.857,564.05 -263.926,563.734 Q-262.994,563.417 -262.467,562.644 Q-261.939,561.87 -261.939,560.71 Q-261.939,559.409 -262.634,558.609 Q-263.328,557.81 -264.594,557.599 Q-265.226,557.511 -268.39,557.511 L-272.451,557.511 z" fill="#C21A19"/>
    </g>
  </g>
</svg>
