<?xml version="1.0" encoding="UTF-8"?>
<!DOCTYPE svg PUBLIC "-//W3C//DTD SVG 1.1//EN" "http://www.w3.org/Graphics/SVG/1.1/DTD/svg11.dtd">
<svg version="1.1" xmlns="http://www.w3.org/2000/svg" xmlns:xlink="http://www.w3.org/1999/xlink" x="0" y="0" width="69.346" height="25.77" viewBox="0, 0, 69.346, 25.77">
  <g id="Capa_1" transform="translate(237.85, -499.393)">
    <g>
      <path d="M-237.85,525.163 L-237.85,499.393 L-232.647,499.393 L-232.647,525.163 z" fill="#000000"/>
      <path d="M-227.708,499.393 L-218.198,499.393 Q-214.981,499.393 -213.294,499.886 Q-211.026,500.554 -209.409,502.259 Q-207.792,503.964 -206.948,506.433 Q-206.104,508.903 -206.104,512.524 Q-206.104,515.706 -206.895,518.009 Q-207.862,520.821 -209.655,522.561 Q-211.009,523.88 -213.311,524.618 Q-215.034,525.163 -217.917,525.163 L-227.708,525.163 z M-222.505,503.753 L-222.505,520.821 L-218.62,520.821 Q-216.44,520.821 -215.473,520.575 Q-214.208,520.259 -213.373,519.503 Q-212.538,518.747 -212.011,517.015 Q-211.483,515.284 -211.483,512.296 Q-211.483,509.307 -212.011,507.708 Q-212.538,506.108 -213.487,505.212 Q-214.436,504.315 -215.895,503.999 Q-216.985,503.753 -220.167,503.753 z" fill="#000000"/>
      <path d="M-201.727,503.964 L-201.727,499.393 L-196.788,499.393 L-196.788,503.964 z M-201.727,525.163 L-201.727,506.495 L-196.788,506.495 L-196.788,525.163 z" fill="#000000"/>
      <path d="M-191.673,525.163 L-191.673,499.393 L-180.722,499.393 Q-176.591,499.393 -174.719,500.088 Q-172.847,500.782 -171.722,502.557 Q-170.597,504.333 -170.597,506.618 Q-170.597,509.518 -172.302,511.408 Q-174.007,513.298 -177.399,513.79 Q-175.712,514.774 -174.613,515.952 Q-173.514,517.13 -171.651,520.136 L-168.505,525.163 L-174.727,525.163 L-178.489,519.555 Q-180.493,516.55 -181.231,515.767 Q-181.97,514.985 -182.796,514.695 Q-183.622,514.405 -185.415,514.405 L-186.47,514.405 L-186.47,525.163 z M-186.47,510.292 L-182.62,510.292 Q-178.876,510.292 -177.944,509.975 Q-177.013,509.659 -176.485,508.886 Q-175.958,508.112 -175.958,506.952 Q-175.958,505.651 -176.652,504.851 Q-177.347,504.052 -178.612,503.841 Q-179.245,503.753 -182.409,503.753 L-186.47,503.753 z" fill="#000000"/>
    </g>
  </g>
</svg>
