<?xml version="1.0" encoding="UTF-8"?>
<!DOCTYPE svg PUBLIC "-//W3C//DTD SVG 1.1//EN" "http://www.w3.org/Graphics/SVG/1.1/DTD/svg11.dtd">
<svg version="1.1" xmlns="http://www.w3.org/2000/svg" xmlns:xlink="http://www.w3.org/1999/xlink" x="0" y="0" width="69.346" height="25.77" viewBox="0, 0, 69.346, 25.77">
  <g id="Capa_1" transform="translate(238.152, -553.151)">
    <g>
      <path d="M-238.152,578.921 L-238.152,553.151 L-232.949,553.151 L-232.949,578.921 z" fill="#FFFFFF"/>
      <path d="M-228.009,553.151 L-218.5,553.151 Q-215.283,553.151 -213.595,553.644 Q-211.328,554.312 -209.711,556.017 Q-208.093,557.722 -207.25,560.192 Q-206.406,562.661 -206.406,566.282 Q-206.406,569.464 -207.197,571.767 Q-208.164,574.579 -209.957,576.319 Q-211.31,577.638 -213.613,578.376 Q-215.336,578.921 -218.218,578.921 L-228.009,578.921 z M-222.806,557.511 L-222.806,574.579 L-218.922,574.579 Q-216.742,574.579 -215.775,574.333 Q-214.509,574.017 -213.674,573.261 Q-212.839,572.505 -212.312,570.774 Q-211.785,569.042 -211.785,566.054 Q-211.785,563.066 -212.312,561.466 Q-212.839,559.866 -213.789,558.97 Q-214.738,558.073 -216.197,557.757 Q-217.287,557.511 -220.468,557.511 z" fill="#FFFFFF"/>
      <path d="M-202.029,557.722 L-202.029,553.151 L-197.089,553.151 L-197.089,557.722 z M-202.029,578.921 L-202.029,560.253 L-197.089,560.253 L-197.089,578.921 z" fill="#FFFFFF"/>
      <path d="M-191.974,578.921 L-191.974,553.151 L-181.023,553.151 Q-176.892,553.151 -175.02,553.846 Q-173.148,554.54 -172.023,556.316 Q-170.898,558.091 -170.898,560.376 Q-170.898,563.276 -172.603,565.166 Q-174.308,567.056 -177.701,567.548 Q-176.013,568.532 -174.915,569.71 Q-173.816,570.888 -171.953,573.894 L-168.806,578.921 L-175.029,578.921 L-178.791,573.314 Q-180.795,570.308 -181.533,569.526 Q-182.271,568.743 -183.097,568.453 Q-183.923,568.163 -185.716,568.163 L-186.771,568.163 L-186.771,578.921 z M-186.771,564.05 L-182.922,564.05 Q-179.177,564.05 -178.246,563.734 Q-177.314,563.417 -176.787,562.644 Q-176.259,561.87 -176.259,560.71 Q-176.259,559.409 -176.954,558.609 Q-177.648,557.81 -178.914,557.599 Q-179.547,557.511 -182.711,557.511 L-186.771,557.511 z" fill="#C21A19"/>
    </g>
  </g>
</svg>
