<?xml version="1.0" encoding="UTF-8"?>
<!DOCTYPE svg PUBLIC "-//W3C//DTD SVG 1.1//EN" "http://www.w3.org/Graphics/SVG/1.1/DTD/svg11.dtd">
<svg version="1.1" xmlns="http://www.w3.org/2000/svg" xmlns:xlink="http://www.w3.org/1999/xlink" x="0" y="0" width="69.346" height="25.77" viewBox="0, 0, 69.346, 25.77">
  <g id="Capa_1" transform="translate(322.832, -499.393)">
    <g>
      <path d="M-322.832,525.163 L-322.832,499.393 L-317.629,499.393 L-317.629,525.163 z" fill="#FFFFFF"/>
      <path d="M-312.689,499.393 L-303.18,499.393 Q-299.963,499.393 -298.275,499.886 Q-296.008,500.554 -294.39,502.259 Q-292.773,503.964 -291.93,506.433 Q-291.086,508.903 -291.086,512.524 Q-291.086,515.706 -291.877,518.009 Q-292.844,520.821 -294.637,522.561 Q-295.99,523.88 -298.293,524.618 Q-300.015,525.163 -302.898,525.163 L-312.689,525.163 z M-307.486,503.753 L-307.486,520.821 L-303.601,520.821 Q-301.422,520.821 -300.455,520.575 Q-299.189,520.259 -298.354,519.503 Q-297.519,518.747 -296.992,517.015 Q-296.465,515.284 -296.465,512.296 Q-296.465,509.307 -296.992,507.708 Q-297.519,506.108 -298.469,505.212 Q-299.418,504.315 -300.877,503.999 Q-301.967,503.753 -305.148,503.753 z" fill="#FFFFFF"/>
      <path d="M-286.709,503.964 L-286.709,499.393 L-281.769,499.393 L-281.769,503.964 z M-286.709,525.163 L-286.709,506.495 L-281.769,506.495 L-281.769,525.163 z" fill="#FFFFFF"/>
      <path d="M-276.654,525.163 L-276.654,499.393 L-265.703,499.393 Q-261.572,499.393 -259.7,500.088 Q-257.828,500.782 -256.703,502.557 Q-255.578,504.333 -255.578,506.618 Q-255.578,509.518 -257.283,511.408 Q-258.988,513.298 -262.381,513.79 Q-260.693,514.774 -259.595,515.952 Q-258.496,517.13 -256.633,520.136 L-253.486,525.163 L-259.709,525.163 L-263.471,519.555 Q-265.474,516.55 -266.213,515.767 Q-266.951,514.985 -267.777,514.695 Q-268.603,514.405 -270.396,514.405 L-271.451,514.405 L-271.451,525.163 z M-271.451,510.292 L-267.601,510.292 Q-263.857,510.292 -262.926,509.975 Q-261.994,509.659 -261.467,508.886 Q-260.939,508.112 -260.939,506.952 Q-260.939,505.651 -261.634,504.851 Q-262.328,504.052 -263.594,503.841 Q-264.226,503.753 -267.39,503.753 L-271.451,503.753 z" fill="#FFFFFF"/>
    </g>
  </g>
</svg>
