<?xml version="1.0" encoding="UTF-8"?>
<!DOCTYPE svg PUBLIC "-//W3C//DTD SVG 1.1//EN" "http://www.w3.org/Graphics/SVG/1.1/DTD/svg11.dtd">
<svg version="1.1" xmlns="http://www.w3.org/2000/svg" xmlns:xlink="http://www.w3.org/1999/xlink" x="0" y="0" width="69.346" height="25.77" viewBox="0, 0, 69.346, 25.77">
  <g id="Capa_1" transform="translate(416.784, -553.151)">
    <g>
      <path d="M-416.784,578.921 L-416.784,553.151 L-411.581,553.151 L-411.581,578.921 z" fill="#09467B"/>
      <path d="M-406.642,553.151 L-397.132,553.151 Q-393.915,553.151 -392.228,553.644 Q-389.96,554.312 -388.343,556.017 Q-386.726,557.722 -385.882,560.192 Q-385.038,562.661 -385.038,566.282 Q-385.038,569.464 -385.829,571.767 Q-386.796,574.579 -388.589,576.319 Q-389.942,577.638 -392.245,578.376 Q-393.968,578.921 -396.851,578.921 L-406.642,578.921 z M-401.438,557.511 L-401.438,574.579 L-397.554,574.579 Q-395.374,574.579 -394.407,574.333 Q-393.142,574.017 -392.307,573.261 Q-391.472,572.505 -390.944,570.774 Q-390.417,569.042 -390.417,566.054 Q-390.417,563.066 -390.944,561.466 Q-391.472,559.866 -392.421,558.97 Q-393.37,558.073 -394.829,557.757 Q-395.919,557.511 -399.101,557.511 z" fill="#09467B"/>
      <path d="M-380.661,557.722 L-380.661,553.151 L-375.722,553.151 L-375.722,557.722 z M-380.661,578.921 L-380.661,560.253 L-375.722,560.253 L-375.722,578.921 z" fill="#09467B"/>
      <path d="M-370.606,578.921 L-370.606,553.151 L-359.655,553.151 Q-355.524,553.151 -353.652,553.846 Q-351.78,554.54 -350.655,556.316 Q-349.53,558.091 -349.53,560.376 Q-349.53,563.276 -351.235,565.166 Q-352.94,567.056 -356.333,567.548 Q-354.645,568.532 -353.547,569.71 Q-352.448,570.888 -350.585,573.894 L-347.438,578.921 L-353.661,578.921 L-357.423,573.314 Q-359.427,570.308 -360.165,569.526 Q-360.903,568.743 -361.729,568.453 Q-362.556,568.163 -364.349,568.163 L-365.403,568.163 L-365.403,578.921 z M-365.403,564.05 L-361.554,564.05 Q-357.81,564.05 -356.878,563.734 Q-355.946,563.417 -355.419,562.644 Q-354.892,561.87 -354.892,560.71 Q-354.892,559.409 -355.586,558.609 Q-356.28,557.81 -357.546,557.599 Q-358.179,557.511 -361.343,557.511 L-365.403,557.511 z" fill="#C21A19"/>
    </g>
  </g>
</svg>
