<?xml version="1.0" encoding="UTF-8"?>
<!DOCTYPE svg PUBLIC "-//W3C//DTD SVG 1.1//EN" "http://www.w3.org/Graphics/SVG/1.1/DTD/svg11.dtd">
<svg version="1.1" xmlns="http://www.w3.org/2000/svg" xmlns:xlink="http://www.w3.org/1999/xlink" x="0" y="0" width="69.346" height="25.77" viewBox="0, 0, 69.346, 25.77">
  <g id="Capa_1" transform="translate(412.832, -499.393)">
    <g>
      <path d="M-412.832,525.163 L-412.832,499.393 L-407.629,499.393 L-407.629,525.163 z" fill="#09467B"/>
      <path d="M-402.689,499.393 L-393.18,499.393 Q-389.963,499.393 -388.275,499.886 Q-386.008,500.554 -384.39,502.259 Q-382.773,503.964 -381.93,506.433 Q-381.086,508.903 -381.086,512.524 Q-381.086,515.706 -381.877,518.009 Q-382.844,520.821 -384.637,522.561 Q-385.99,523.88 -388.293,524.618 Q-390.015,525.163 -392.898,525.163 L-402.689,525.163 z M-397.486,503.753 L-397.486,520.821 L-393.601,520.821 Q-391.422,520.821 -390.455,520.575 Q-389.189,520.259 -388.354,519.503 Q-387.519,518.747 -386.992,517.015 Q-386.465,515.284 -386.465,512.296 Q-386.465,509.307 -386.992,507.708 Q-387.519,506.108 -388.469,505.212 Q-389.418,504.315 -390.877,503.999 Q-391.967,503.753 -395.148,503.753 z" fill="#09467B"/>
      <path d="M-376.709,503.964 L-376.709,499.393 L-371.769,499.393 L-371.769,503.964 z M-376.709,525.163 L-376.709,506.495 L-371.769,506.495 L-371.769,525.163 z" fill="#09467B"/>
      <path d="M-366.654,525.163 L-366.654,499.393 L-355.703,499.393 Q-351.572,499.393 -349.7,500.088 Q-347.828,500.782 -346.703,502.557 Q-345.578,504.333 -345.578,506.618 Q-345.578,509.518 -347.283,511.408 Q-348.988,513.298 -352.381,513.79 Q-350.693,514.774 -349.595,515.952 Q-348.496,517.13 -346.633,520.136 L-343.486,525.163 L-349.709,525.163 L-353.471,519.555 Q-355.474,516.55 -356.213,515.767 Q-356.951,514.985 -357.777,514.695 Q-358.603,514.405 -360.396,514.405 L-361.451,514.405 L-361.451,525.163 z M-361.451,510.292 L-357.601,510.292 Q-353.857,510.292 -352.926,509.975 Q-351.994,509.659 -351.467,508.886 Q-350.939,508.112 -350.939,506.952 Q-350.939,505.651 -351.634,504.851 Q-352.328,504.052 -353.594,503.841 Q-354.226,503.753 -357.39,503.753 L-361.451,503.753 z" fill="#09467B"/>
    </g>
  </g>
</svg>
