<?xml version="1.0" encoding="UTF-8"?>
<!DOCTYPE svg PUBLIC "-//W3C//DTD SVG 1.1//EN" "http://www.w3.org/Graphics/SVG/1.1/DTD/svg11.dtd">
<svg version="1.1" xmlns="http://www.w3.org/2000/svg" xmlns:xlink="http://www.w3.org/1999/xlink" x="0" y="0" width="228.527" height="78.44" viewBox="0, 0, 228.527, 78.44">
  <g id="Capa_1" transform="translate(700.527, -498.527)">
    <g>
      <path d="M-700.527,551.163 L-700.527,504.635 L-691.133,504.635 L-691.133,551.163 z" fill="#09467B"/>
      <path d="M-682.214,504.635 L-665.044,504.635 Q-659.236,504.635 -656.189,505.523 Q-652.094,506.729 -649.175,509.808 Q-646.255,512.887 -644.731,517.346 Q-643.208,521.805 -643.208,528.343 Q-643.208,534.088 -644.636,538.245 Q-646.382,543.324 -649.619,546.466 Q-652.063,548.846 -656.22,550.179 Q-659.331,551.163 -664.536,551.163 L-682.214,551.163 z M-672.82,512.506 L-672.82,543.324 L-665.805,543.324 Q-661.87,543.324 -660.124,542.879 Q-657.839,542.308 -656.332,540.943 Q-654.824,539.578 -653.872,536.452 Q-652.92,533.326 -652.92,527.93 Q-652.92,522.535 -653.872,519.647 Q-654.824,516.759 -656.538,515.14 Q-658.252,513.521 -660.886,512.95 Q-662.854,512.506 -668.598,512.506 z" fill="#09467B"/>
      <path d="M-635.305,512.887 L-635.305,504.635 L-626.386,504.635 L-626.386,512.887 z M-635.305,551.163 L-635.305,517.457 L-626.386,517.457 L-626.386,551.163 z" fill="#09467B"/>
      <path d="M-617.151,551.163 L-617.151,504.635 L-597.378,504.635 Q-589.919,504.635 -586.539,505.888 Q-583.159,507.142 -581.128,510.347 Q-579.096,513.553 -579.096,517.679 Q-579.096,522.916 -582.175,526.328 Q-585.254,529.74 -591.379,530.628 Q-588.332,532.406 -586.349,534.532 Q-584.365,536.659 -581.001,542.086 L-575.32,551.163 L-586.555,551.163 L-593.347,541.038 Q-596.965,535.611 -598.298,534.199 Q-599.631,532.786 -601.123,532.263 Q-602.615,531.739 -605.852,531.739 L-607.756,531.739 L-607.756,551.163 z M-607.756,524.312 L-600.805,524.312 Q-594.045,524.312 -592.363,523.741 Q-590.681,523.17 -589.729,521.773 Q-588.777,520.377 -588.777,518.282 Q-588.777,515.933 -590.03,514.489 Q-591.284,513.045 -593.569,512.664 Q-594.712,512.506 -600.425,512.506 L-607.756,512.506 z" fill="#C21A19"/>
      <path d="M-567.68,504.027 L-567.68,572.467" fill-opacity="0" stroke="#09467B" stroke-width="2"/>
      <path d="M-557.122,515.527 L-557.122,504.79 L-555.701,504.79 L-555.701,515.527 z" fill="#09467B"/>
      <path d="M-553.365,515.527 L-553.365,507.749 L-552.178,507.749 L-552.178,508.855 Q-551.321,507.573 -549.703,507.573 Q-548.999,507.573 -548.41,507.826 Q-547.82,508.079 -547.527,508.489 Q-547.234,508.899 -547.117,509.463 Q-547.044,509.829 -547.044,510.745 L-547.044,515.527 L-548.362,515.527 L-548.362,510.796 Q-548.362,509.99 -548.516,509.591 Q-548.67,509.192 -549.062,508.954 Q-549.454,508.716 -549.981,508.716 Q-550.823,508.716 -551.435,509.25 Q-552.046,509.785 -552.046,511.279 L-552.046,515.527 z" fill="#09467B"/>
      <path d="M-542.862,515.527 L-545.821,507.749 L-544.429,507.749 L-542.759,512.407 Q-542.488,513.162 -542.261,513.975 Q-542.085,513.359 -541.77,512.495 L-540.042,507.749 L-538.687,507.749 L-541.631,515.527 z" fill="#09467B"/>
      <path d="M-532.198,513.022 L-530.835,513.191 Q-531.158,514.385 -532.029,515.044 Q-532.901,515.703 -534.256,515.703 Q-535.962,515.703 -536.962,514.652 Q-537.962,513.601 -537.962,511.704 Q-537.962,509.741 -536.951,508.657 Q-535.94,507.573 -534.329,507.573 Q-532.769,507.573 -531.78,508.635 Q-530.791,509.697 -530.791,511.624 Q-530.791,511.741 -530.799,511.975 L-536.6,511.975 Q-536.526,513.257 -535.874,513.938 Q-535.223,514.619 -534.248,514.619 Q-533.523,514.619 -533.011,514.238 Q-532.498,513.857 -532.198,513.022 z M-536.526,510.891 L-532.183,510.891 Q-532.271,509.91 -532.681,509.419 Q-533.311,508.657 -534.314,508.657 Q-535.223,508.657 -535.841,509.265 Q-536.46,509.873 -536.526,510.891 z" fill="#09467B"/>
      <path d="M-529.707,513.206 L-528.404,513 Q-528.294,513.784 -527.792,514.202 Q-527.29,514.619 -526.39,514.619 Q-525.481,514.619 -525.042,514.249 Q-524.602,513.879 -524.602,513.381 Q-524.602,512.935 -524.991,512.678 Q-525.262,512.502 -526.338,512.231 Q-527.789,511.865 -528.349,511.598 Q-528.909,511.331 -529.198,510.858 Q-529.488,510.386 -529.488,509.814 Q-529.488,509.294 -529.25,508.851 Q-529.012,508.408 -528.602,508.115 Q-528.294,507.888 -527.763,507.731 Q-527.232,507.573 -526.624,507.573 Q-525.708,507.573 -525.016,507.837 Q-524.324,508.101 -523.995,508.551 Q-523.665,509.001 -523.54,509.756 L-524.83,509.932 Q-524.917,509.331 -525.339,508.994 Q-525.76,508.657 -526.529,508.657 Q-527.437,508.657 -527.825,508.957 Q-528.213,509.258 -528.213,509.661 Q-528.213,509.917 -528.052,510.122 Q-527.891,510.334 -527.547,510.474 Q-527.349,510.547 -526.382,510.811 Q-524.983,511.184 -524.43,511.422 Q-523.877,511.66 -523.562,512.114 Q-523.247,512.568 -523.247,513.242 Q-523.247,513.901 -523.632,514.484 Q-524.017,515.066 -524.742,515.384 Q-525.467,515.703 -526.382,515.703 Q-527.898,515.703 -528.693,515.073 Q-529.488,514.443 -529.707,513.206 z" fill="#09467B"/>
      <path d="M-518.802,514.348 L-518.611,515.513 Q-519.168,515.63 -519.607,515.63 Q-520.325,515.63 -520.721,515.403 Q-521.116,515.176 -521.277,514.806 Q-521.438,514.436 -521.438,513.249 L-521.438,508.774 L-522.405,508.774 L-522.405,507.749 L-521.438,507.749 L-521.438,505.823 L-520.127,505.032 L-520.127,507.749 L-518.802,507.749 L-518.802,508.774 L-520.127,508.774 L-520.127,513.323 Q-520.127,513.887 -520.058,514.048 Q-519.988,514.209 -519.831,514.304 Q-519.673,514.399 -519.38,514.399 Q-519.161,514.399 -518.802,514.348 z" fill="#09467B"/>
      <path d="M-517.505,506.306 L-517.505,504.79 L-516.187,504.79 L-516.187,506.306 z M-517.505,515.527 L-517.505,507.749 L-516.187,507.749 L-516.187,515.527 z" fill="#09467B"/>
      <path d="M-514.422,516.172 L-513.14,516.362 Q-513.06,516.956 -512.693,517.227 Q-512.203,517.593 -511.353,517.593 Q-510.437,517.593 -509.939,517.227 Q-509.441,516.86 -509.266,516.201 Q-509.163,515.798 -509.17,514.509 Q-510.035,515.527 -511.324,515.527 Q-512.928,515.527 -513.807,514.37 Q-514.686,513.213 -514.686,511.594 Q-514.686,510.481 -514.283,509.54 Q-513.88,508.599 -513.115,508.086 Q-512.349,507.573 -511.316,507.573 Q-509.939,507.573 -509.046,508.687 L-509.046,507.749 L-507.83,507.749 L-507.83,514.473 Q-507.83,516.289 -508.2,517.047 Q-508.57,517.805 -509.372,518.245 Q-510.174,518.684 -511.346,518.684 Q-512.737,518.684 -513.594,518.058 Q-514.451,517.432 -514.422,516.172 z M-513.331,511.499 Q-513.331,513.03 -512.723,513.733 Q-512.115,514.436 -511.199,514.436 Q-510.291,514.436 -509.676,513.737 Q-509.061,513.037 -509.061,511.543 Q-509.061,510.115 -509.694,509.39 Q-510.328,508.665 -511.221,508.665 Q-512.1,508.665 -512.715,509.379 Q-513.331,510.093 -513.331,511.499 z" fill="#09467B"/>
      <path d="M-500.762,514.568 Q-501.495,515.19 -502.172,515.447 Q-502.85,515.703 -503.626,515.703 Q-504.908,515.703 -505.596,515.077 Q-506.285,514.451 -506.285,513.477 Q-506.285,512.905 -506.025,512.433 Q-505.765,511.96 -505.343,511.675 Q-504.922,511.389 -504.395,511.243 Q-504.007,511.14 -503.223,511.045 Q-501.626,510.854 -500.872,510.591 Q-500.865,510.32 -500.865,510.247 Q-500.865,509.441 -501.238,509.111 Q-501.744,508.665 -502.74,508.665 Q-503.67,508.665 -504.113,508.99 Q-504.556,509.316 -504.769,510.144 L-506.058,509.968 Q-505.882,509.141 -505.479,508.632 Q-505.076,508.123 -504.314,507.848 Q-503.553,507.573 -502.549,507.573 Q-501.553,507.573 -500.931,507.808 Q-500.308,508.042 -500.015,508.397 Q-499.722,508.752 -499.605,509.294 Q-499.539,509.631 -499.539,510.51 L-499.539,512.268 Q-499.539,514.106 -499.455,514.593 Q-499.371,515.081 -499.122,515.527 L-500.499,515.527 Q-500.704,515.117 -500.762,514.568 z M-500.872,511.624 Q-501.59,511.916 -503.025,512.122 Q-503.838,512.239 -504.175,512.385 Q-504.512,512.532 -504.695,512.814 Q-504.878,513.096 -504.878,513.44 Q-504.878,513.967 -504.479,514.319 Q-504.08,514.67 -503.311,514.67 Q-502.549,514.67 -501.956,514.337 Q-501.363,514.004 -501.084,513.425 Q-500.872,512.978 -500.872,512.107 z" fill="#09467B"/>
      <path d="M-492.42,512.678 L-491.124,512.847 Q-491.336,514.187 -492.211,514.945 Q-493.086,515.703 -494.361,515.703 Q-495.957,515.703 -496.928,514.659 Q-497.898,513.616 -497.898,511.667 Q-497.898,510.408 -497.481,509.463 Q-497.063,508.518 -496.21,508.046 Q-495.357,507.573 -494.353,507.573 Q-493.086,507.573 -492.281,508.214 Q-491.475,508.855 -491.248,510.034 L-492.53,510.232 Q-492.713,509.448 -493.178,509.053 Q-493.643,508.657 -494.302,508.657 Q-495.298,508.657 -495.921,509.371 Q-496.543,510.085 -496.543,511.631 Q-496.543,513.198 -495.943,513.909 Q-495.342,514.619 -494.375,514.619 Q-493.599,514.619 -493.079,514.143 Q-492.559,513.667 -492.42,512.678 z" fill="#09467B"/>
      <path d="M-489.988,506.306 L-489.988,504.79 L-488.67,504.79 L-488.67,506.306 z M-489.988,515.527 L-489.988,507.749 L-488.67,507.749 L-488.67,515.527 z" fill="#09467B"/>
      <path d="M-487.154,511.638 Q-487.154,509.478 -485.953,508.437 Q-484.949,507.573 -483.506,507.573 Q-481.902,507.573 -480.884,508.624 Q-479.866,509.675 -479.866,511.528 Q-479.866,513.03 -480.317,513.89 Q-480.767,514.751 -481.628,515.227 Q-482.488,515.703 -483.506,515.703 Q-485.14,515.703 -486.147,514.656 Q-487.154,513.608 -487.154,511.638 z M-485.799,511.638 Q-485.799,513.132 -485.147,513.876 Q-484.495,514.619 -483.506,514.619 Q-482.525,514.619 -481.873,513.872 Q-481.221,513.125 -481.221,511.594 Q-481.221,510.151 -481.877,509.408 Q-482.532,508.665 -483.506,508.665 Q-484.495,508.665 -485.147,509.404 Q-485.799,510.144 -485.799,511.638 z M-484.239,506.782 L-483.265,504.731 L-481.536,504.731 L-483.147,506.782 z" fill="#09467B"/>
      <path d="M-478.321,515.527 L-478.321,507.749 L-477.134,507.749 L-477.134,508.855 Q-476.277,507.573 -474.659,507.573 Q-473.956,507.573 -473.366,507.826 Q-472.776,508.079 -472.483,508.489 Q-472.19,508.899 -472.073,509.463 Q-472,509.829 -472,510.745 L-472,515.527 L-473.318,515.527 L-473.318,510.796 Q-473.318,509.99 -473.472,509.591 Q-473.626,509.192 -474.018,508.954 Q-474.41,508.716 -474.937,508.716 Q-475.779,508.716 -476.391,509.25 Q-477.002,509.785 -477.002,511.279 L-477.002,515.527 z" fill="#09467B"/>
      <path d="M-557.364,532.527 L-557.364,521.79 L-553.665,521.79 Q-552.413,521.79 -551.753,521.944 Q-550.831,522.156 -550.179,522.713 Q-549.329,523.431 -548.908,524.548 Q-548.487,525.665 -548.487,527.1 Q-548.487,528.323 -548.772,529.268 Q-549.058,530.213 -549.505,530.832 Q-549.952,531.451 -550.483,531.806 Q-551.014,532.161 -551.764,532.344 Q-552.515,532.527 -553.489,532.527 z M-555.943,531.26 L-553.65,531.26 Q-552.588,531.26 -551.984,531.062 Q-551.38,530.865 -551.021,530.506 Q-550.516,530 -550.234,529.147 Q-549.952,528.294 -549.952,527.078 Q-549.952,525.394 -550.505,524.489 Q-551.058,523.584 -551.849,523.277 Q-552.42,523.057 -553.687,523.057 L-555.943,523.057 z" fill="#09467B"/>
      <path d="M-541.375,530.022 L-540.013,530.191 Q-540.335,531.385 -541.206,532.044 Q-542.078,532.703 -543.433,532.703 Q-545.14,532.703 -546.139,531.652 Q-547.139,530.601 -547.139,528.704 Q-547.139,526.741 -546.128,525.657 Q-545.118,524.573 -543.506,524.573 Q-541.946,524.573 -540.957,525.635 Q-539.969,526.697 -539.969,528.624 Q-539.969,528.741 -539.976,528.975 L-545.777,528.975 Q-545.704,530.257 -545.052,530.938 Q-544.4,531.619 -543.426,531.619 Q-542.701,531.619 -542.188,531.238 Q-541.675,530.857 -541.375,530.022 z M-545.704,527.891 L-541.36,527.891 Q-541.448,526.91 -541.858,526.419 Q-542.488,525.657 -543.492,525.657 Q-544.4,525.657 -545.019,526.265 Q-545.638,526.873 -545.704,527.891 z" fill="#09467B"/>
      <path d="M-538.885,530.206 L-537.581,530 Q-537.471,530.784 -536.969,531.202 Q-536.468,531.619 -535.567,531.619 Q-534.659,531.619 -534.219,531.249 Q-533.78,530.879 -533.78,530.381 Q-533.78,529.935 -534.168,529.678 Q-534.439,529.502 -535.516,529.231 Q-536.966,528.865 -537.526,528.598 Q-538.086,528.331 -538.376,527.858 Q-538.665,527.386 -538.665,526.814 Q-538.665,526.294 -538.427,525.851 Q-538.189,525.408 -537.779,525.115 Q-537.471,524.888 -536.94,524.731 Q-536.409,524.573 -535.801,524.573 Q-534.886,524.573 -534.194,524.837 Q-533.501,525.101 -533.172,525.551 Q-532.842,526.001 -532.718,526.756 L-534.007,526.932 Q-534.095,526.331 -534.516,525.994 Q-534.937,525.657 -535.706,525.657 Q-536.614,525.657 -537.002,525.958 Q-537.391,526.258 -537.391,526.661 Q-537.391,526.917 -537.229,527.122 Q-537.068,527.334 -536.724,527.474 Q-536.526,527.547 -535.56,527.811 Q-534.161,528.184 -533.608,528.422 Q-533.055,528.66 -532.74,529.114 Q-532.425,529.568 -532.425,530.242 Q-532.425,530.901 -532.809,531.484 Q-533.194,532.066 -533.919,532.385 Q-534.644,532.703 -535.56,532.703 Q-537.076,532.703 -537.87,532.073 Q-538.665,531.443 -538.885,530.206 z" fill="#09467B"/>
      <path d="M-525.782,531.568 Q-526.514,532.19 -527.192,532.447 Q-527.869,532.703 -528.645,532.703 Q-529.927,532.703 -530.616,532.077 Q-531.304,531.451 -531.304,530.477 Q-531.304,529.905 -531.044,529.433 Q-530.784,528.96 -530.363,528.675 Q-529.942,528.389 -529.414,528.243 Q-529.026,528.14 -528.243,528.045 Q-526.646,527.854 -525.892,527.591 Q-525.884,527.32 -525.884,527.247 Q-525.884,526.441 -526.258,526.111 Q-526.763,525.665 -527.759,525.665 Q-528.689,525.665 -529.133,525.99 Q-529.576,526.316 -529.788,527.144 L-531.077,526.968 Q-530.901,526.141 -530.498,525.632 Q-530.096,525.123 -529.334,524.848 Q-528.572,524.573 -527.569,524.573 Q-526.573,524.573 -525.95,524.808 Q-525.328,525.042 -525.035,525.397 Q-524.742,525.752 -524.624,526.294 Q-524.559,526.631 -524.559,527.51 L-524.559,529.268 Q-524.559,531.106 -524.474,531.594 Q-524.39,532.081 -524.141,532.527 L-525.518,532.527 Q-525.723,532.117 -525.782,531.568 z M-525.892,528.624 Q-526.609,528.917 -528.045,529.122 Q-528.858,529.239 -529.195,529.385 Q-529.532,529.532 -529.715,529.814 Q-529.898,530.096 -529.898,530.44 Q-529.898,530.967 -529.499,531.319 Q-529.1,531.67 -528.331,531.67 Q-527.569,531.67 -526.976,531.337 Q-526.382,531.004 -526.104,530.425 Q-525.892,529.979 -525.892,529.107 z" fill="#09467B"/>
      <path d="M-522.53,532.527 L-522.53,524.749 L-521.343,524.749 L-521.343,525.928 Q-520.889,525.101 -520.505,524.837 Q-520.12,524.573 -519.659,524.573 Q-518.992,524.573 -518.304,524.998 L-518.758,526.221 Q-519.241,525.936 -519.725,525.936 Q-520.157,525.936 -520.501,526.196 Q-520.845,526.456 -520.992,526.917 Q-521.211,527.62 -521.211,528.455 L-521.211,532.527 z" fill="#09467B"/>
      <path d="M-517.535,532.527 L-517.535,524.749 L-516.348,524.749 L-516.348,525.928 Q-515.894,525.101 -515.509,524.837 Q-515.125,524.573 -514.664,524.573 Q-513.997,524.573 -513.309,524.998 L-513.763,526.221 Q-514.246,525.936 -514.729,525.936 Q-515.162,525.936 -515.506,526.196 Q-515.85,526.456 -515.997,526.917 Q-516.216,527.62 -516.216,528.455 L-516.216,532.527 z" fill="#09467B"/>
      <path d="M-513.016,528.638 Q-513.016,526.478 -511.814,525.438 Q-510.811,524.573 -509.368,524.573 Q-507.764,524.573 -506.746,525.624 Q-505.728,526.675 -505.728,528.528 Q-505.728,530.03 -506.178,530.89 Q-506.629,531.751 -507.489,532.227 Q-508.35,532.703 -509.368,532.703 Q-511.001,532.703 -512.009,531.656 Q-513.016,530.608 -513.016,528.638 z M-511.661,528.638 Q-511.661,530.132 -511.009,530.876 Q-510.357,531.619 -509.368,531.619 Q-508.387,531.619 -507.735,530.872 Q-507.083,530.125 -507.083,528.594 Q-507.083,527.151 -507.738,526.408 Q-508.394,525.665 -509.368,525.665 Q-510.357,525.665 -511.009,526.404 Q-511.661,527.144 -511.661,528.638 z" fill="#09467B"/>
      <path d="M-504.212,532.527 L-504.212,521.79 L-502.894,521.79 L-502.894,532.527 z" fill="#09467B"/>
      <path d="M-500.879,532.527 L-500.879,521.79 L-499.561,521.79 L-499.561,532.527 z" fill="#09467B"/>
      <path d="M-498.008,528.638 Q-498.008,526.478 -496.807,525.438 Q-495.804,524.573 -494.361,524.573 Q-492.757,524.573 -491.739,525.624 Q-490.721,526.675 -490.721,528.528 Q-490.721,530.03 -491.171,530.89 Q-491.622,531.751 -492.482,532.227 Q-493.343,532.703 -494.361,532.703 Q-495.994,532.703 -497.001,531.656 Q-498.008,530.608 -498.008,528.638 z M-496.653,528.638 Q-496.653,530.132 -496.001,530.876 Q-495.35,531.619 -494.361,531.619 Q-493.379,531.619 -492.728,530.872 Q-492.076,530.125 -492.076,528.594 Q-492.076,527.151 -492.731,526.408 Q-493.387,525.665 -494.361,525.665 Q-495.35,525.665 -496.001,526.404 Q-496.653,527.144 -496.653,528.638 z" fill="#09467B"/>
      <path d="M-557.525,540.306 L-557.525,538.79 L-556.206,538.79 L-556.206,540.306 z M-557.525,549.527 L-557.525,541.749 L-556.206,541.749 L-556.206,549.527 z" fill="#09467B"/>
      <path d="M-554.2,549.527 L-554.2,541.749 L-553.013,541.749 L-553.013,542.855 Q-552.156,541.573 -550.538,541.573 Q-549.834,541.573 -549.245,541.826 Q-548.655,542.079 -548.362,542.489 Q-548.069,542.899 -547.952,543.463 Q-547.879,543.829 -547.879,544.745 L-547.879,549.527 L-549.197,549.527 L-549.197,544.796 Q-549.197,543.99 -549.351,543.591 Q-549.505,543.192 -549.897,542.954 Q-550.289,542.716 -550.816,542.716 Q-551.658,542.716 -552.27,543.25 Q-552.881,543.785 -552.881,545.279 L-552.881,549.527 z" fill="#09467B"/>
      <path d="M-545.857,549.527 L-545.857,541.749 L-544.671,541.749 L-544.671,542.855 Q-543.814,541.573 -542.195,541.573 Q-541.492,541.573 -540.903,541.826 Q-540.313,542.079 -540.02,542.489 Q-539.727,542.899 -539.61,543.463 Q-539.537,543.829 -539.537,544.745 L-539.537,549.527 L-540.855,549.527 L-540.855,544.796 Q-540.855,543.99 -541.009,543.591 Q-541.163,543.192 -541.554,542.954 Q-541.946,542.716 -542.474,542.716 Q-543.316,542.716 -543.927,543.25 Q-544.539,543.785 -544.539,545.279 L-544.539,549.527 z" fill="#09467B"/>
      <path d="M-538.006,545.638 Q-538.006,543.478 -536.805,542.438 Q-535.801,541.573 -534.358,541.573 Q-532.754,541.573 -531.736,542.624 Q-530.718,543.675 -530.718,545.528 Q-530.718,547.03 -531.169,547.89 Q-531.619,548.751 -532.48,549.227 Q-533.34,549.703 -534.358,549.703 Q-535.992,549.703 -536.999,548.656 Q-538.006,547.608 -538.006,545.638 z M-536.651,545.638 Q-536.651,547.132 -535.999,547.876 Q-535.347,548.619 -534.358,548.619 Q-533.377,548.619 -532.725,547.872 Q-532.073,547.125 -532.073,545.594 Q-532.073,544.151 -532.729,543.408 Q-533.384,542.665 -534.358,542.665 Q-535.347,542.665 -535.999,543.404 Q-536.651,544.144 -536.651,545.638 z" fill="#09467B"/>
      <path d="M-527.012,549.527 L-529.971,541.749 L-528.58,541.749 L-526.91,546.407 Q-526.639,547.162 -526.412,547.975 Q-526.236,547.359 -525.921,546.495 L-524.192,541.749 L-522.837,541.749 L-525.782,549.527 z" fill="#09467B"/>
      <path d="M-516.597,548.568 Q-517.33,549.19 -518.007,549.447 Q-518.685,549.703 -519.461,549.703 Q-520.743,549.703 -521.431,549.077 Q-522.12,548.451 -522.12,547.477 Q-522.12,546.905 -521.86,546.433 Q-521.6,545.96 -521.178,545.675 Q-520.757,545.389 -520.23,545.243 Q-519.842,545.14 -519.058,545.045 Q-517.461,544.854 -516.707,544.591 Q-516.7,544.32 -516.7,544.247 Q-516.7,543.441 -517.073,543.111 Q-517.579,542.665 -518.575,542.665 Q-519.505,542.665 -519.948,542.99 Q-520.391,543.316 -520.603,544.144 L-521.893,543.968 Q-521.717,543.141 -521.314,542.632 Q-520.911,542.123 -520.149,541.848 Q-519.388,541.573 -518.384,541.573 Q-517.388,541.573 -516.766,541.808 Q-516.143,542.042 -515.85,542.397 Q-515.557,542.752 -515.44,543.294 Q-515.374,543.631 -515.374,544.51 L-515.374,546.268 Q-515.374,548.106 -515.29,548.594 Q-515.206,549.081 -514.956,549.527 L-516.333,549.527 Q-516.539,549.117 -516.597,548.568 z M-516.707,545.624 Q-517.425,545.917 -518.86,546.122 Q-519.673,546.239 -520.01,546.385 Q-520.347,546.532 -520.53,546.814 Q-520.713,547.096 -520.713,547.44 Q-520.713,547.967 -520.314,548.319 Q-519.915,548.67 -519.146,548.67 Q-518.384,548.67 -517.791,548.337 Q-517.198,548.004 -516.919,547.425 Q-516.707,546.979 -516.707,546.107 z" fill="#09467B"/>
      <path d="M-508.255,546.678 L-506.958,546.847 Q-507.171,548.187 -508.046,548.945 Q-508.921,549.703 -510.196,549.703 Q-511.792,549.703 -512.763,548.659 Q-513.733,547.616 -513.733,545.667 Q-513.733,544.408 -513.316,543.463 Q-512.898,542.518 -512.045,542.046 Q-511.192,541.573 -510.188,541.573 Q-508.921,541.573 -508.116,542.214 Q-507.31,542.855 -507.083,544.034 L-508.365,544.232 Q-508.548,543.448 -509.013,543.053 Q-509.478,542.657 -510.137,542.657 Q-511.133,542.657 -511.756,543.371 Q-512.378,544.085 -512.378,545.631 Q-512.378,547.198 -511.778,547.909 Q-511.177,548.619 -510.21,548.619 Q-509.434,548.619 -508.914,548.143 Q-508.394,547.667 -508.255,546.678 z" fill="#09467B"/>
      <path d="M-505.823,540.306 L-505.823,538.79 L-504.505,538.79 L-504.505,540.306 z M-505.823,549.527 L-505.823,541.749 L-504.505,541.749 L-504.505,549.527 z" fill="#09467B"/>
      <path d="M-502.989,545.638 Q-502.989,543.478 -501.788,542.438 Q-500.784,541.573 -499.341,541.573 Q-497.737,541.573 -496.719,542.624 Q-495.701,543.675 -495.701,545.528 Q-495.701,547.03 -496.152,547.89 Q-496.602,548.751 -497.463,549.227 Q-498.323,549.703 -499.341,549.703 Q-500.975,549.703 -501.982,548.656 Q-502.989,547.608 -502.989,545.638 z M-501.634,545.638 Q-501.634,547.132 -500.982,547.876 Q-500.33,548.619 -499.341,548.619 Q-498.36,548.619 -497.708,547.872 Q-497.056,547.125 -497.056,545.594 Q-497.056,544.151 -497.712,543.408 Q-498.367,542.665 -499.341,542.665 Q-500.33,542.665 -500.982,543.404 Q-501.634,544.144 -501.634,545.638 z M-500.074,540.782 L-499.1,538.731 L-497.371,538.731 L-498.982,540.782 z" fill="#09467B"/>
      <path d="M-494.156,549.527 L-494.156,541.749 L-492.969,541.749 L-492.969,542.855 Q-492.112,541.573 -490.494,541.573 Q-489.79,541.573 -489.201,541.826 Q-488.611,542.079 -488.318,542.489 Q-488.025,542.899 -487.908,543.463 Q-487.835,543.829 -487.835,544.745 L-487.835,549.527 L-489.153,549.527 L-489.153,544.796 Q-489.153,543.99 -489.307,543.591 Q-489.461,543.192 -489.853,542.954 Q-490.245,542.716 -490.772,542.716 Q-491.614,542.716 -492.226,543.25 Q-492.837,543.785 -492.837,545.279 L-492.837,549.527 z" fill="#09467B"/>
      <path d="M-671.621,558.264 L-669.597,558.264 L-669.597,563.692 Q-669.597,564.984 -669.522,565.366 Q-669.392,565.982 -668.904,566.354 Q-668.415,566.727 -667.567,566.727 Q-666.706,566.727 -666.268,566.375 Q-665.831,566.023 -665.742,565.51 Q-665.653,564.997 -665.653,563.808 L-665.653,558.264 L-663.63,558.264 L-663.63,563.528 Q-663.63,565.332 -663.794,566.077 Q-663.958,566.823 -664.399,567.335 Q-664.84,567.848 -665.578,568.152 Q-666.316,568.456 -667.506,568.456 Q-668.941,568.456 -669.683,568.125 Q-670.424,567.793 -670.855,567.263 Q-671.286,566.734 -671.423,566.153 Q-671.621,565.291 -671.621,563.61 z" fill="#09467B"/>
      <path d="M-654.907,568.285 L-656.828,568.285 L-656.828,564.58 Q-656.828,563.405 -656.951,563.059 Q-657.074,562.714 -657.351,562.523 Q-657.628,562.331 -658.017,562.331 Q-658.516,562.331 -658.913,562.605 Q-659.309,562.878 -659.456,563.329 Q-659.603,563.781 -659.603,564.997 L-659.603,568.285 L-661.524,568.285 L-661.524,561.026 L-659.74,561.026 L-659.74,562.092 Q-658.79,560.862 -657.347,560.862 Q-656.712,560.862 -656.185,561.091 Q-655.659,561.32 -655.389,561.675 Q-655.119,562.031 -655.013,562.482 Q-654.907,562.933 -654.907,563.774 z" fill="#09467B"/>
      <path d="M-652.959,560.041 L-652.959,558.264 L-651.038,558.264 L-651.038,560.041 z M-652.959,568.285 L-652.959,561.026 L-651.038,561.026 L-651.038,568.285 z" fill="#09467B"/>
      <path d="M-649.049,568.285 L-649.049,558.264 L-644.79,558.264 Q-643.183,558.264 -642.455,558.534 Q-641.727,558.804 -641.29,559.494 Q-640.852,560.185 -640.852,561.073 Q-640.852,562.201 -641.515,562.936 Q-642.178,563.671 -643.498,563.863 Q-642.841,564.245 -642.414,564.703 Q-641.987,565.161 -641.262,566.33 L-640.039,568.285 L-642.459,568.285 L-643.922,566.105 Q-644.701,564.936 -644.988,564.632 Q-645.275,564.327 -645.596,564.215 Q-645.918,564.102 -646.615,564.102 L-647.025,564.102 L-647.025,568.285 z M-647.025,562.502 L-645.528,562.502 Q-644.072,562.502 -643.71,562.379 Q-643.347,562.256 -643.142,561.955 Q-642.937,561.655 -642.937,561.203 Q-642.937,560.698 -643.207,560.386 Q-643.477,560.075 -643.969,559.993 Q-644.216,559.959 -645.446,559.959 L-647.025,559.959 z" fill="#09467B"/>
      <path d="M-634.755,565.975 L-632.841,566.296 Q-633.21,567.349 -634.006,567.899 Q-634.802,568.449 -635.999,568.449 Q-637.892,568.449 -638.801,567.212 Q-639.519,566.221 -639.519,564.71 Q-639.519,562.906 -638.576,561.884 Q-637.633,560.862 -636.19,560.862 Q-634.57,560.862 -633.633,561.931 Q-632.697,563.001 -632.738,565.209 L-637.55,565.209 Q-637.53,566.064 -637.086,566.539 Q-636.641,567.014 -635.978,567.014 Q-635.527,567.014 -635.219,566.768 Q-634.912,566.522 -634.755,565.975 z M-634.645,564.033 Q-634.666,563.199 -635.076,562.765 Q-635.486,562.331 -636.074,562.331 Q-636.703,562.331 -637.113,562.789 Q-637.523,563.247 -637.516,564.033 z" fill="#09467B"/>
      <path d="M-631.316,561.026 L-629.546,561.026 L-629.546,562.017 Q-628.595,560.862 -627.283,560.862 Q-626.586,560.862 -626.073,561.149 Q-625.56,561.436 -625.232,562.017 Q-624.754,561.436 -624.2,561.149 Q-623.646,560.862 -623.017,560.862 Q-622.217,560.862 -621.664,561.186 Q-621.11,561.511 -620.837,562.14 Q-620.638,562.605 -620.638,563.644 L-620.638,568.285 L-622.559,568.285 L-622.559,564.136 Q-622.559,563.056 -622.758,562.741 Q-623.024,562.331 -623.578,562.331 Q-623.981,562.331 -624.337,562.577 Q-624.692,562.823 -624.849,563.299 Q-625.007,563.774 -625.007,564.799 L-625.007,568.285 L-626.927,568.285 L-626.927,564.307 Q-626.927,563.247 -627.03,562.94 Q-627.133,562.632 -627.348,562.482 Q-627.563,562.331 -627.932,562.331 Q-628.377,562.331 -628.732,562.571 Q-629.088,562.81 -629.241,563.261 Q-629.395,563.712 -629.395,564.758 L-629.395,568.285 L-631.316,568.285 z" fill="#09467B"/>
      <path d="M-618.724,560.041 L-618.724,558.264 L-616.803,558.264 L-616.803,560.041 z M-618.724,568.285 L-618.724,561.026 L-616.803,561.026 L-616.803,568.285 z" fill="#09467B"/>
      <path d="M-608.231,568.285 L-610.152,568.285 L-610.152,564.58 Q-610.152,563.405 -610.275,563.059 Q-610.398,562.714 -610.675,562.523 Q-610.952,562.331 -611.341,562.331 Q-611.841,562.331 -612.237,562.605 Q-612.633,562.878 -612.78,563.329 Q-612.927,563.781 -612.927,564.997 L-612.927,568.285 L-614.848,568.285 L-614.848,561.026 L-613.064,561.026 L-613.064,562.092 Q-612.114,560.862 -610.672,560.862 Q-610.036,560.862 -609.509,561.091 Q-608.983,561.32 -608.713,561.675 Q-608.443,562.031 -608.337,562.482 Q-608.231,562.933 -608.231,563.774 z" fill="#09467B"/>
      <path d="M-606.461,568.764 L-604.266,569.031 Q-604.212,569.413 -604.013,569.557 Q-603.74,569.762 -603.152,569.762 Q-602.4,569.762 -602.024,569.536 Q-601.771,569.386 -601.641,569.051 Q-601.552,568.812 -601.552,568.169 L-601.552,567.11 Q-602.414,568.285 -603.726,568.285 Q-605.189,568.285 -606.044,567.048 Q-606.714,566.071 -606.714,564.615 Q-606.714,562.789 -605.835,561.825 Q-604.957,560.862 -603.651,560.862 Q-602.304,560.862 -601.429,562.044 L-601.429,561.026 L-599.632,561.026 L-599.632,567.54 Q-599.632,568.825 -599.843,569.461 Q-600.055,570.097 -600.438,570.459 Q-600.821,570.822 -601.46,571.027 Q-602.099,571.232 -603.077,571.232 Q-604.923,571.232 -605.695,570.599 Q-606.467,569.967 -606.467,568.996 Q-606.467,568.901 -606.461,568.764 z M-604.745,564.505 Q-604.745,565.66 -604.297,566.197 Q-603.849,566.734 -603.193,566.734 Q-602.489,566.734 -602.004,566.183 Q-601.518,565.633 -601.518,564.553 Q-601.518,563.425 -601.983,562.878 Q-602.448,562.331 -603.159,562.331 Q-603.849,562.331 -604.297,562.868 Q-604.745,563.405 -604.745,564.505 z" fill="#09467B"/>
      <path d="M-594.402,561.026 L-594.402,562.557 L-595.715,562.557 L-595.715,565.483 Q-595.715,566.371 -595.677,566.518 Q-595.639,566.665 -595.506,566.761 Q-595.373,566.857 -595.181,566.857 Q-594.915,566.857 -594.409,566.672 L-594.245,568.162 Q-594.915,568.449 -595.762,568.449 Q-596.282,568.449 -596.699,568.275 Q-597.116,568.101 -597.311,567.824 Q-597.506,567.547 -597.581,567.075 Q-597.642,566.74 -597.642,565.722 L-597.642,562.557 L-598.524,562.557 L-598.524,561.026 L-597.642,561.026 L-597.642,559.583 L-595.715,558.462 L-595.715,561.026 z" fill="#09467B"/>
      <path d="M-593.513,564.553 Q-593.513,563.596 -593.042,562.7 Q-592.57,561.805 -591.705,561.333 Q-590.841,560.862 -589.774,560.862 Q-588.127,560.862 -587.074,561.931 Q-586.021,563.001 -586.021,564.635 Q-586.021,566.282 -587.084,567.366 Q-588.147,568.449 -589.76,568.449 Q-590.758,568.449 -591.664,567.998 Q-592.57,567.547 -593.042,566.676 Q-593.513,565.804 -593.513,564.553 z M-591.545,564.656 Q-591.545,565.736 -591.032,566.31 Q-590.519,566.884 -589.767,566.884 Q-589.015,566.884 -588.506,566.31 Q-587.997,565.736 -587.997,564.642 Q-587.997,563.575 -588.506,563.001 Q-589.015,562.427 -589.767,562.427 Q-590.519,562.427 -591.032,563.001 Q-591.545,563.575 -591.545,564.656 z" fill="#09467B"/>
      <path d="M-577.914,568.285 L-579.835,568.285 L-579.835,564.58 Q-579.835,563.405 -579.958,563.059 Q-580.081,562.714 -580.358,562.523 Q-580.634,562.331 -581.024,562.331 Q-581.523,562.331 -581.92,562.605 Q-582.316,562.878 -582.463,563.329 Q-582.61,563.781 -582.61,564.997 L-582.61,568.285 L-584.531,568.285 L-584.531,561.026 L-582.747,561.026 L-582.747,562.092 Q-581.797,560.862 -580.354,560.862 Q-579.718,560.862 -579.192,561.091 Q-578.666,561.32 -578.396,561.675 Q-578.126,562.031 -578.02,562.482 Q-577.914,562.933 -577.914,563.774 z" fill="#09467B"/>
    </g>
  </g>
</svg>
